<svg height="512" width="350" xmlns="http://www.w3.org/2000/svg"><path d="m336.5694275 404.0977478h12.8625183c0 37.6347961-6.0739441 65.0271912-18.2218933 82.1772461-12.1479492 17.1500244-27.5115356 25.7250671-46.0907288 25.7250671-15.0062866 0-29.4170532-5.5975952-43.2323914-16.7927551-13.8153076-11.1951599-26.201416-41.565033-37.1583862-91.1095581l-30.7271576-138.6294556-106.4731292 241.5296631h-67.5282593l152.9211426-329.423584c-8.0986328-42.6368561-17.864624-74.1977463-29.2979736-94.6824875-11.4333649-20.4847336-25.605957-30.7271423-42.5177917-30.7271423-13.5771179 0-25.3677673 5.1211624-35.3719559 15.3635712s-15.7208633 26.3205719-17.150032 48.2344742h-12.8625261c.7145844-35.0146561 7.741333-63.0025291 21.0802536-83.9637146s30.012558-31.5607987 50.0209351-31.7990227c12.8625183 0 25.0104675 5.2403173 36.4438171 15.7208652 11.4333649 10.480547 21.4375458 28.5833912 30.012558 54.3084412 8.5750275 25.7250519 21.7948456 78.8425293 39.6594696 159.352417l25.3677673 113.2616577c10.2423706 46.924408 20.9611511 78.2470398 32.156311 93.9678955 11.1951294 15.7208862 24.7722473 23.7004089 40.7313232 23.9385986 26.6778261.000002 41.8032228-18.8173809 45.3761293-56.452177z" fill="#aaa" /></svg>