<?xml version="1.0" standalone="no"?>
<!DOCTYPE svg PUBLIC "-//W3C//DTD SVG 20010904//EN"
 "http://www.w3.org/TR/2001/REC-SVG-20010904/DTD/svg10.dtd">
<svg version="1.0" xmlns="http://www.w3.org/2000/svg"
 width="225.000000pt" height="225.000000pt" viewBox="0 0 225.000000 225.000000"
 preserveAspectRatio="xMidYMid meet">

<g transform="translate(0.000000,225.000000) scale(0.100000,-0.100000)"
fill="#24539e" stroke="none">
<path d="M288 1663 l-217 -218 186 -225 c304 -368 736 -892 777 -942 21 -27
42 -48 46 -48 4 0 79 80 166 177 162 180 399 443 529 588 40 44 147 163 238
265 l167 185 -218 218 -217 217 -620 0 -620 0 -217 -217z m537 108 c-28 -25
-600 -349 -608 -344 -5 3 69 84 164 179 l174 174 139 0 c80 0 136 -4 131 -9z
m899 -20 l27 -29 -126 -72 c-98 -57 -124 -76 -120 -90 4 -14 -80 -67 -432
-270 -241 -140 -452 -262 -470 -272 l-31 -19 -102 121 c-56 67 -100 123 -98
125 2 2 210 123 463 269 l460 266 201 0 200 0 28 -29z m277 -277 l37 -37 -141
-156 c-78 -87 -191 -212 -251 -279 l-109 -122 -137 0 c-129 0 -138 -1 -143
-20 -5 -19 -14 -20 -221 -20 -119 0 -216 3 -216 8 0 4 22 19 48 33 26 15 281
162 566 328 286 165 522 301 525 301 3 0 22 -16 42 -36z m-760 -921 c-22 -27
-67 -77 -98 -111 l-58 -64 -93 111 -93 111 192 0 191 0 -41 -47z"/>
</g>
</svg>
